<svg width="16.000000" height="22.000000" viewBox="0 0 16 22" fill="none" xmlns="http://www.w3.org/2000/svg" xmlns:xlink="http://www.w3.org/1999/xlink">
	<desc>
			Created with Pixso.
	</desc>
	<defs>
		<clipPath id="clip9621_357">
			<rect id="icon/filled/suggested/exclamation-circle" rx="-0.500000" width="15.000000" height="15.000000" transform="translate(0.500000 3.500000)" fill="white" fill-opacity="0"/>
		</clipPath>
		<clipPath id="clip9621_356">
			<rect id="Frame 19" rx="-0.500000" width="15.000000" height="21.000000" transform="translate(0.500000 0.500000)" fill="white" fill-opacity="0"/>
		</clipPath>
	</defs>
	<g clip-path="url(#clip9621_356)">
		<rect id="icon/filled/suggested/exclamation-circle" rx="-0.500000" width="15.000000" height="15.000000" transform="translate(0.500000 3.500000)" fill="#FFFFFF" fill-opacity="0"/>
		<g clip-path="url(#clip9621_357)">
			<path id="Vector" d="M8 4C4.13 4 1 7.13 1 11C1 14.86 4.13 18 8 18C11.86 18 15 14.86 15 11C15 7.13 11.86 4 8 4ZM7.5 7.62C7.5 7.55 7.55 7.5 7.62 7.5L8.37 7.5C8.44 7.5 8.5 7.55 8.5 7.62L8.5 11.87C8.5 11.94 8.44 12 8.37 12L7.62 12C7.55 12 7.5 11.94 7.5 11.87L7.5 7.62ZM8 14.5C7.8 14.49 7.61 14.41 7.47 14.27C7.34 14.13 7.26 13.94 7.26 13.75C7.26 13.55 7.34 13.36 7.47 13.22C7.61 13.08 7.8 13 8 13C8.19 13 8.38 13.08 8.52 13.22C8.65 13.36 8.73 13.55 8.73 13.75C8.73 13.94 8.65 14.13 8.52 14.27C8.38 14.41 8.19 14.49 8 14.5Z" fill="#FAAD14" fill-opacity="1.000000" fill-rule="nonzero"/>
		</g>
	</g>
</svg>
